<svg width="95" height="261" viewBox="0 0 95 261" fill="none" xmlns="http://www.w3.org/2000/svg">
<rect x="8.5" y="89.5" width="85" height="82" rx="9.5" fill="white" stroke="black" stroke-width="3"/>
<path d="M84 131.189C84 113.964 69.673 100 52 100C34.327 100 20 113.964 20 131.189C20 146.757 31.702 159.66 47 162V140.205H38.875V131.189H47V124.318C47 116.501 51.7775 112.183 59.0868 112.183C62.588 112.183 66.25 112.793 66.25 112.793V120.468H62.215C58.2395 120.468 57 122.872 57 125.339V131.189H65.875L64.4562 140.205H57V162C72.298 159.66 84 146.757 84 131.189Z" fill="#1877F2"/>
<rect x="8.5" y="177.5" width="85" height="82" rx="9.5" fill="white" stroke="black" stroke-width="3"/>
<path d="M79 200.564C76.9405 201.523 74.7559 202.153 72.519 202.432C74.849 200.964 76.638 198.638 77.4804 195.868C75.2655 197.25 72.8422 198.224 70.3152 198.747C68.2567 196.441 65.3243 195 62.0787 195C55.8469 195 50.7945 200.313 50.7945 206.865C50.7945 207.795 50.8944 208.7 51.0866 209.569C41.7087 209.074 33.3943 204.35 27.8287 197.172C26.8576 198.924 26.3012 200.963 26.3012 203.137C26.3012 207.253 28.2934 210.885 31.321 213.013C29.5291 212.954 27.7766 212.445 26.2099 211.529C26.2092 211.578 26.2092 211.628 26.2092 211.678C26.2092 217.427 30.0988 222.222 35.2606 223.312C33.599 223.788 31.856 223.857 30.1649 223.516C31.6007 228.23 35.7681 231.66 40.7056 231.756C36.8438 234.938 31.9782 236.835 26.6918 236.835C25.7808 236.835 24.8828 236.779 24 236.669C28.9936 240.036 34.9248 242 41.2971 242C62.0525 242 73.402 223.92 73.402 208.241C73.402 207.726 73.3913 207.215 73.3694 206.706C75.5785 205.027 77.4852 202.947 79 200.564Z" fill="#55ACEE"/>
<rect x="8.5" y="1.5" width="85" height="82" rx="9.5" fill="white" stroke="black" stroke-width="3"/>
<g clip-path="url(#clip0_4269_78)">
<path d="M17.4938 41.8953C17.4922 47.66 19.0409 53.2888 21.9858 58.2501L17.2122 75.2015L35.049 70.6529C39.9825 73.265 45.51 74.6337 51.1272 74.634H51.1419C69.6851 74.634 84.7797 59.9588 84.7876 41.9211C84.7911 33.1805 81.2944 24.9615 74.9414 18.7779C68.5894 12.5949 60.1416 9.18795 51.1406 9.18396C32.5952 9.18396 17.5017 23.8584 17.4941 41.8953" fill="url(#paint0_linear_4269_78)"/>
<path d="M16.2926 41.8846C16.2907 47.8568 17.8949 53.6869 20.9448 58.8259L16 76.3849L34.4764 71.6733C39.5673 74.3728 45.2991 75.7961 51.1315 75.7982H51.1466C70.355 75.7982 85.9918 60.5952 86 41.9118C86.0033 32.8571 82.3808 24.3426 75.8008 17.9375C69.22 11.5332 60.47 8.00372 51.1466 8C31.9348 8 16.3002 23.201 16.2926 41.8846ZM27.2957 57.9408L26.6058 56.8758C23.7057 52.391 22.175 47.2084 22.1772 41.8868C22.1835 26.3574 35.1784 13.723 51.1575 13.723C58.8958 13.7262 66.1681 16.66 71.638 21.983C77.1075 27.3065 80.1173 34.3831 80.1154 41.9096C80.1082 57.439 67.1131 70.075 51.1466 70.075H51.1351C45.9362 70.0724 40.8374 68.7145 36.3908 66.1485L35.3326 65.5381L24.3683 68.3339L27.2957 57.9406V57.9408Z" fill="url(#paint1_linear_4269_78)"/>
<path d="M42.4354 27.7187C41.783 26.3084 41.0964 26.28 40.476 26.2552C39.9679 26.234 39.3871 26.2356 38.8069 26.2356C38.2261 26.2356 37.2825 26.448 36.4849 27.2951C35.6864 28.1429 33.4366 30.1916 33.4366 34.3586C33.4366 38.5258 36.5573 42.5529 36.9924 43.1186C37.428 43.6832 43.017 52.508 51.8687 55.903C59.2253 58.7243 60.7224 58.1632 62.319 58.0217C63.9158 57.8807 67.4716 55.9734 68.1971 53.9957C68.923 52.0182 68.923 50.3231 68.7054 49.9689C68.4877 49.616 67.9069 49.404 67.036 48.9806C66.1649 48.557 61.8834 46.5079 61.0852 46.2253C60.2868 45.9428 59.7063 45.8019 59.1255 46.65C58.5447 47.4967 56.877 49.404 56.3687 49.9689C55.8609 50.535 55.3526 50.6055 54.482 50.1819C53.6105 49.7569 50.8059 48.8636 47.4784 45.9785C44.8895 43.7334 43.1417 40.961 42.6337 40.113C42.1256 39.2662 42.5792 38.8072 43.0159 38.3852C43.4072 38.0057 43.8871 37.3961 44.323 36.9018C44.7572 36.4071 44.9021 36.0542 45.1925 35.4894C45.4831 34.924 45.3377 34.4293 45.1203 34.0057C44.9021 33.5821 43.2098 29.3933 42.4354 27.7187Z" fill="white"/>
</g>
<defs>
<linearGradient id="paint0_linear_4269_78" x1="50.9999" y1="75.2015" x2="50.9999" y2="9.18396" gradientUnits="userSpaceOnUse">
<stop stop-color="#1FAF38"/>
<stop offset="1" stop-color="#60D669"/>
</linearGradient>
<linearGradient id="paint1_linear_4269_78" x1="51" y1="76.3849" x2="51" y2="8" gradientUnits="userSpaceOnUse">
<stop stop-color="#F9F9F9"/>
<stop offset="1" stop-color="white"/>
</linearGradient>
<clipPath id="clip0_4269_78">
<rect width="70" height="68.6118" fill="white" transform="translate(16 8)"/>
</clipPath>
</defs>
</svg>
